STARTFONT 2.1
FONT -sun-Chelmsford Sans Serif-Normal-R-Normal-SansSerif-40-240-120-120-P-200-WinRoman-0
SIZE 24 120 120
FONTBOUNDINGBOX 40 46 0 -9
COMMENT "Generated by fontforge, http://fontforge.sourceforge.net"
COMMENT "(c)Copyright Sun Microsystems Inc"
STARTPROPERTIES 34
FOUNDRY "sun"
FAMILY_NAME "Chelmsford Sans Serif"
WEIGHT_NAME "Normal"
SLANT "R"
SETWIDTH_NAME "Normal"
ADD_STYLE_NAME "SansSerif"
PIXEL_SIZE 40
POINT_SIZE 240
RESOLUTION_X 120
RESOLUTION_Y 120
SPACING "P"
AVERAGE_WIDTH 200
CHARSET_REGISTRY "WinRoman"
CHARSET_ENCODING "0"
FONTNAME_REGISTRY ""
CHARSET_COLLECTIONS "WinRoman"
FONT_NAME "ChelmsfordSansSerif"
FACE_NAME "Chelmsford Sans Serif"
COPYRIGHT "(c)Copyright Sun Microsystems Inc"
FONT_VERSION "001.000"
FONT_ASCENT 32
FONT_DESCENT 8
UNDERLINE_POSITION -4
UNDERLINE_THICKNESS 2
X_HEIGHT 20
CAP_HEIGHT 28
RAW_ASCENT 800
RAW_DESCENT 200
NORM_SPACE 11
RELATIVE_WEIGHT 40
RELATIVE_SETWIDTH 50
FIGURE_WIDTH 22
AVG_LOWERCASE_WIDTH 195
AVG_UPPERCASE_WIDTH 256
ENDPROPERTIES
CHARS 224
STARTCHAR space
ENCODING 32
SWIDTH 275 0
DWIDTH 11 0
BBX 1 1 10 -9
BITMAP
00
ENDCHAR
STARTCHAR exclam
ENCODING 33
SWIDTH 275 0
DWIDTH 11 0
BBX 4 29 3 0
BITMAP
F0
F0
F0
F0
F0
F0
F0
F0
F0
F0
F0
F0
F0
F0
F0
F0
60
60
60
60
60
60
00
00
00
F0
F0
F0
F0
ENDCHAR
STARTCHAR quotedbl
ENCODING 34
SWIDTH 350 0
DWIDTH 14 0
BBX 8 13 3 16
BITMAP
E7
E7
E7
E7
E7
E7
E7
E7
E7
E7
E7
E7
E7
ENDCHAR
STARTCHAR numbersign
ENCODING 35
SWIDTH 550 0
DWIDTH 22 0
BBX 21 29 0 0
BITMAP
01C070
01C070
01C070
0380E0
0380E0
0380E0
0380E0
0701C0
0701C0
1FFFF8
1FFFF8
1FFFF8
0E0380
0E0380
0E0380
1C0700
1C0700
FFFFE0
FFFFE0
FFFFE0
1C0700
1C0700
380E00
380E00
380E00
380E00
701C00
701C00
701C00
ENDCHAR
STARTCHAR dollar
ENCODING 36
SWIDTH 550 0
DWIDTH 22 0
BBX 20 38 1 -4
BITMAP
006000
006000
006000
006000
006000
01FC00
07FF00
1FFF80
3F6FC0
3C63C0
7C61E0
7861E0
7861E0
786000
7C6000
7C6000
3F6000
3FE000
0FF800
07FF00
007F80
007FE0
0067E0
0061F0
0061F0
F060F0
F060F0
F860F0
7861E0
7C61E0
3F67C0
1FFF80
0FFF00
03FC00
006000
006000
006000
006000
ENDCHAR
STARTCHAR percent
ENCODING 37
SWIDTH 875 0
DWIDTH 35 0
BBX 29 30 2 0
BITMAP
07800300
1FE00700
3FF00600
78780E00
70381C00
E01C1800
E01C3800
E01C3000
E01C7000
7038E000
7878C000
3FF1C000
1FE18000
07838000
00030000
00060000
000E0F00
000C3FC0
001C7FE0
0018F0F0
0038E070
0031C038
0071C038
00E1C038
00C1C038
01C0E070
0180F0F0
03807FE0
03003FC0
06000F00
ENDCHAR
STARTCHAR ampersand
ENCODING 38
SWIDTH 675 0
DWIDTH 27 0
BBX 25 29 1 0
BITMAP
01F80000
07FC0000
0FFF0000
0F0F0000
1E078000
1E078000
1E078000
1E0F8000
0F0F8000
0FBF0000
07FE0000
07FC0000
03F80000
07F00000
0FF00000
1FF80000
3E7C1E00
7C3E1E00
781F1E00
F80FBC00
F007FC00
F003FC00
F001F800
F803F800
7807F800
7E1FFC00
3FFF3E00
1FFC1F00
07F00F80
ENDCHAR
STARTCHAR quotesingle
ENCODING 39
SWIDTH 225 0
DWIDTH 9 0
BBX 3 11 3 18
BITMAP
E0
E0
E0
E0
E0
E0
E0
E0
E0
E0
E0
ENDCHAR
STARTCHAR parenleft
ENCODING 40
SWIDTH 325 0
DWIDTH 13 0
BBX 9 38 4 -8
BITMAP
0380
0700
0700
0E00
0E00
1E00
1C00
3C00
3C00
3800
7800
7800
7800
7800
F000
F000
F000
F000
F000
F000
F000
F000
F000
F800
7800
7800
7800
7800
3800
3C00
3C00
1C00
1E00
0E00
0E00
0700
0700
0380
ENDCHAR
STARTCHAR parenright
ENCODING 41
SWIDTH 325 0
DWIDTH 13 0
BBX 9 38 0 -8
BITMAP
E000
7000
7000
3800
3800
3C00
1C00
1E00
1E00
0E00
0F00
0F00
0F00
0F00
0780
0780
0780
0780
0780
0780
0780
0780
0780
0F80
0F00
0F00
0F00
0F00
0E00
1E00
1E00
1C00
3C00
3800
3800
7000
7000
E000
ENDCHAR
STARTCHAR asterisk
ENCODING 42
SWIDTH 375 0
DWIDTH 15 0
BBX 15 16 0 13
BITMAP
0380
0380
0380
0380
0380
4384
FBBE
FFFE
3FF8
07C0
0FE0
0EE0
1EF0
3C78
3838
1830
ENDCHAR
STARTCHAR plus
ENCODING 43
SWIDTH 575 0
DWIDTH 23 0
BBX 19 21 2 4
BITMAP
00E000
00E000
00E000
00E000
00E000
00E000
00E000
00E000
00E000
FFFFE0
FFFFE0
FFFFE0
00E000
00E000
00E000
00E000
00E000
00E000
00E000
00E000
00E000
ENDCHAR
STARTCHAR comma
ENCODING 44
SWIDTH 275 0
DWIDTH 11 0
BBX 4 10 3 -6
BITMAP
F0
F0
F0
F0
30
30
30
60
E0
C0
ENDCHAR
STARTCHAR hyphen
ENCODING 45
SWIDTH 325 0
DWIDTH 13 0
BBX 11 3 1 10
BITMAP
FFE0
FFE0
FFE0
ENDCHAR
STARTCHAR period
ENCODING 46
SWIDTH 275 0
DWIDTH 11 0
BBX 4 4 3 0
BITMAP
F0
F0
F0
F0
ENDCHAR
STARTCHAR slash
ENCODING 47
SWIDTH 275 0
DWIDTH 11 0
BBX 11 33 0 -3
BITMAP
00E0
00E0
00E0
00C0
01C0
01C0
0180
0380
0380
0380
0300
0700
0700
0700
0600
0E00
0E00
0E00
0C00
1C00
1C00
1C00
1800
3800
3800
3800
3000
7000
7000
6000
E000
E000
E000
ENDCHAR
STARTCHAR zero
ENCODING 48
SWIDTH 550 0
DWIDTH 22 0
BBX 19 29 1 0
BITMAP
01F000
07FC00
0FFE00
1F1F00
3C0780
3C0780
7803C0
7803C0
7803C0
F001E0
F001E0
F001E0
F001E0
F001E0
F001E0
F001E0
F001E0
F001E0
F001E0
F001E0
7803C0
7803C0
7803C0
3C0780
3C0780
1F1F00
0FFE00
07FC00
01F000
ENDCHAR
STARTCHAR one
ENCODING 49
SWIDTH 550 0
DWIDTH 22 0
BBX 11 29 5 0
BITMAP
01E0
01E0
03E0
07E0
1FE0
FFE0
FFE0
FFE0
01E0
01E0
01E0
01E0
01E0
01E0
01E0
01E0
01E0
01E0
01E0
01E0
01E0
01E0
01E0
01E0
01E0
01E0
01E0
01E0
01E0
ENDCHAR
STARTCHAR two
ENCODING 50
SWIDTH 550 0
DWIDTH 22 0
BBX 20 29 1 0
BITMAP
01FC00
07FF00
0FFFC0
1F07E0
3E01E0
3C01F0
7C00F0
7800F0
7800F0
7800F0
0000F0
0001F0
0001E0
0003E0
0007C0
001F80
003F00
00FC00
01F800
07E000
0FC000
1F0000
3E0000
3C0000
780000
780000
FFFFF0
FFFFF0
FFFFF0
ENDCHAR
STARTCHAR three
ENCODING 51
SWIDTH 550 0
DWIDTH 22 0
BBX 19 29 1 0
BITMAP
03F800
0FFE00
1FFF00
3F1F80
3C0780
7C07C0
7803C0
7803C0
7803C0
0003C0
000780
000780
000F00
00FE00
00FE00
00FF80
000FC0
0003C0
0003E0
0001E0
F001E0
F001E0
F803E0
7803C0
7C07C0
3F1F80
1FFF00
0FFE00
03F800
ENDCHAR
STARTCHAR four
ENCODING 52
SWIDTH 550 0
DWIDTH 22 0
BBX 20 29 1 0
BITMAP
001F00
003F00
007F00
007F00
00FF00
00EF00
01CF00
03CF00
038F00
078F00
070F00
0F0F00
1E0F00
1C0F00
3C0F00
380F00
780F00
700F00
FFFFF0
FFFFF0
FFFFF0
000F00
000F00
000F00
000F00
000F00
000F00
000F00
000F00
ENDCHAR
STARTCHAR five
ENCODING 53
SWIDTH 550 0
DWIDTH 22 0
BBX 18 29 2 0
BITMAP
3FFF00
3FFF00
3FFF00
3C0000
3C0000
3C0000
3C0000
780000
780000
780000
7BF000
7FFC00
FFFE00
FC3F00
F00F80
000780
0007C0
0003C0
0003C0
0003C0
0003C0
0003C0
F007C0
F00780
780F80
7E3F00
3FFE00
1FFC00
03F000
ENDCHAR
STARTCHAR six
ENCODING 54
SWIDTH 550 0
DWIDTH 22 0
BBX 19 29 1 0
BITMAP
01F800
07FE00
0FFF80
1F8F80
1E03C0
3C03C0
3801E0
7801E0
780000
700000
F1F800
F7FE00
FFFF00
FF1F80
FC07C0
F803C0
F803E0
F001E0
F001E0
F001E0
F001E0
7001E0
7803E0
7803C0
3C07C0
3F1F80
1FFF00
0FFE00
01F800
ENDCHAR
STARTCHAR seven
ENCODING 55
SWIDTH 550 0
DWIDTH 22 0
BBX 18 29 2 0
BITMAP
FFFFC0
FFFFC0
FFFFC0
0003C0
000780
000F00
001E00
001C00
003C00
007800
007800
00F000
00F000
01E000
01E000
01E000
03C000
03C000
078000
078000
078000
0F0000
0F0000
0F0000
0F0000
1E0000
1E0000
1E0000
1E0000
ENDCHAR
STARTCHAR eight
ENCODING 56
SWIDTH 550 0
DWIDTH 22 0
BBX 19 29 1 0
BITMAP
01F000
0FFE00
1FFF00
3E0F80
3C0780
7803C0
7803C0
7803C0
7803C0
7803C0
3C0780
3C0780
3F1F80
0FFE00
0FFE00
1FFF00
3E0F80
7803C0
7803C0
F001E0
F001E0
F001E0
F001E0
7803C0
7803C0
3E0F80
3FFF80
0FFE00
03F800
ENDCHAR
STARTCHAR nine
ENCODING 57
SWIDTH 550 0
DWIDTH 22 0
BBX 19 29 1 0
BITMAP
03F000
0FFC00
1FFF00
3F1F80
7C07C0
7803C0
F803C0
F001C0
F001E0
F001E0
F001E0
F803E0
7803E0
7C07E0
3F1FE0
3FFFE0
0FFBE0
03F1E0
0001E0
0003C0
0003C0
F003C0
F00780
780780
780F00
3E3F00
3FFE00
0FFC00
03F000
ENDCHAR
STARTCHAR colon
ENCODING 58
SWIDTH 275 0
DWIDTH 11 0
BBX 4 22 3 0
BITMAP
F0
F0
F0
F0
F0
00
00
00
00
00
00
00
00
00
00
00
00
00
F0
F0
F0
F0
ENDCHAR
STARTCHAR semicolon
ENCODING 59
SWIDTH 275 0
DWIDTH 11 0
BBX 4 28 3 -6
BITMAP
F0
F0
F0
F0
F0
00
00
00
00
00
00
00
00
00
00
00
00
00
F0
F0
F0
F0
30
30
30
60
E0
C0
ENDCHAR
STARTCHAR less
ENCODING 60
SWIDTH 575 0
DWIDTH 23 0
BBX 18 20 2 1
BITMAP
000040
0001C0
0007C0
001F80
007E00
01F800
07E000
1F8000
7E0000
F80000
F80000
7E0000
1F8000
07E000
01F800
007E00
001F80
0007C0
0001C0
000040
ENDCHAR
STARTCHAR equal
ENCODING 61
SWIDTH 575 0
DWIDTH 23 0
BBX 17 10 3 5
BITMAP
FFFF80
FFFF80
FFFF80
000000
000000
000000
000000
FFFF80
FFFF80
FFFF80
ENDCHAR
STARTCHAR greater
ENCODING 62
SWIDTH 575 0
DWIDTH 23 0
BBX 18 20 3 1
BITMAP
800000
E00000
F80000
7E0000
1F8000
07E000
01F800
007E00
001F80
0007C0
0007C0
001F80
007E00
01F800
07E000
1F8000
7E0000
F80000
E00000
800000
ENDCHAR
STARTCHAR question
ENCODING 63
SWIDTH 550 0
DWIDTH 22 0
BBX 18 30 2 0
BITMAP
01F800
0FFE00
1FFF00
3FFF80
7E0F80
7803C0
F803C0
F003C0
F003C0
F007C0
000780
000F80
001F00
003E00
007C00
007800
00F000
00F000
01E000
01E000
01E000
01E000
000000
000000
000000
000000
01E000
01E000
01E000
01E000
ENDCHAR
STARTCHAR at
ENCODING 64
SWIDTH 1000 0
DWIDTH 40 0
BBX 35 34 2 -4
BITMAP
0003FF0000
001FFFE000
007E01F800
00F8003C00
03E0001E00
0780000700
0F00000780
0E00000380
1C000001C0
3C01F001C0
3807FDC0E0
700F9F80E0
701E0780E0
701C0780E0
E0380380E0
E0380300E0
E0780700E0
E0700700E0
E0700701C0
E0700701C0
E0700E0380
E0701E0780
70383E0F00
703EFF3E00
701FE7FC00
380781F000
1C00000000
1E00000000
0F00000400
0780001C00
03E0007800
00FC03F000
003FFFC000
0007FE0000
ENDCHAR
STARTCHAR A
ENCODING 65
SWIDTH 675 0
DWIDTH 27 0
BBX 27 29 0 0
BITMAP
001F0000
001F0000
003F8000
003F8000
003F8000
007BC000
007BC000
00F1E000
00F1E000
00F1E000
01E0F000
01E0F000
03C07800
03C07800
03C07800
07803C00
07803C00
0FFFFE00
0FFFFE00
0FFFFE00
1FFFFF00
1E000F00
1C000700
3C000780
3C000780
780003C0
780003C0
F80003E0
F00001E0
ENDCHAR
STARTCHAR B
ENCODING 66
SWIDTH 675 0
DWIDTH 27 0
BBX 22 29 2 0
BITMAP
FFFE00
FFFFC0
FFFFE0
FFFFF0
F003F0
F000F8
F00078
F00078
F00078
F000F8
F000F0
F003F0
FFFFC0
FFFFC0
FFFFF0
FFFFF8
F001F8
F0007C
F0003C
F0003C
F0003C
F0003C
F0007C
F00078
F001F8
FFFFF0
FFFFF0
FFFFC0
FFFE00
ENDCHAR
STARTCHAR C
ENCODING 67
SWIDTH 725 0
DWIDTH 29 0
BBX 26 30 1 0
BITMAP
003F8000
01FFF000
03FFF800
0FFFFE00
1FC07F00
1F001F80
3E000F80
7C0007C0
7C0007C0
78000000
F8000000
F0000000
F0000000
F0000000
F0000000
F0000000
F0000000
F0000000
F0000000
F80003C0
780003C0
7C0007C0
7C000780
3E000F80
1F001F00
1FC07F00
0FFFFE00
03FFF800
01FFF000
003F8000
ENDCHAR
STARTCHAR D
ENCODING 68
SWIDTH 725 0
DWIDTH 29 0
BBX 24 29 3 0
BITMAP
FFFC00
FFFF80
FFFFC0
FFFFF0
F003F8
F000F8
F0007C
F0003E
F0001E
F0001E
F0000F
F0000F
F0000F
F0000F
F0000F
F0000F
F0000F
F0000F
F0000F
F0001E
F0001E
F0003E
F0007C
F000F8
F003F8
FFFFF0
FFFFC0
FFFF80
FFFC00
ENDCHAR
STARTCHAR E
ENCODING 69
SWIDTH 675 0
DWIDTH 27 0
BBX 23 29 2 0
BITMAP
FFFFFE
FFFFFE
FFFFFE
FFFFFE
F00000
F00000
F00000
F00000
F00000
F00000
F00000
F00000
FFFFF8
FFFFF8
FFFFF8
FFFFF8
F00000
F00000
F00000
F00000
F00000
F00000
F00000
F00000
F00000
FFFFFE
FFFFFE
FFFFFE
FFFFFE
ENDCHAR
STARTCHAR F
ENCODING 70
SWIDTH 675 0
DWIDTH 27 0
BBX 23 29 2 0
BITMAP
FFFFFE
FFFFFE
FFFFFE
FFFFFE
F00000
F00000
F00000
F00000
F00000
F00000
F00000
F00000
FFFFF8
FFFFF8
FFFFF8
FFFFF8
F00000
F00000
F00000
F00000
F00000
F00000
F00000
F00000
F00000
F00000
F00000
F00000
F00000
ENDCHAR
STARTCHAR G
ENCODING 71
SWIDTH 725 0
DWIDTH 29 0
BBX 26 30 1 0
BITMAP
003F8000
01FFF000
03FFF800
0FFFFE00
1FC07F00
1F001F80
3E000F80
7C0007C0
7C0007C0
78000000
F8000000
F0000000
F0000000
F0000000
F003FFC0
F003FFC0
F003FFC0
F003FFC0
F00003C0
F80003C0
780003C0
7C0007C0
7C0007C0
3E000FC0
1F001FC0
1FC07FC0
0FFFFFC0
03FFF9C0
01FFF1C0
003F81C0
ENDCHAR
STARTCHAR H
ENCODING 72
SWIDTH 725 0
DWIDTH 29 0
BBX 23 29 3 0
BITMAP
F0001E
F0001E
F0001E
F0001E
F0001E
F0001E
F0001E
F0001E
F0001E
F0001E
F0001E
F0001E
FFFFFE
FFFFFE
FFFFFE
FFFFFE
F0001E
F0001E
F0001E
F0001E
F0001E
F0001E
F0001E
F0001E
F0001E
F0001E
F0001E
F0001E
F0001E
ENDCHAR
STARTCHAR I
ENCODING 73
SWIDTH 250 0
DWIDTH 10 0
BBX 4 29 3 0
BITMAP
F0
F0
F0
F0
F0
F0
F0
F0
F0
F0
F0
F0
F0
F0
F0
F0
F0
F0
F0
F0
F0
F0
F0
F0
F0
F0
F0
F0
F0
ENDCHAR
STARTCHAR J
ENCODING 74
SWIDTH 500 0
DWIDTH 20 0
BBX 16 29 2 0
BITMAP
000F
000F
000F
000F
000F
000F
000F
000F
000F
000F
000F
000F
000F
000F
000F
000F
000F
000F
000F
F00F
F00F
F00F
F01F
F81E
7C3E
7FFE
3FFC
1FF8
07E0
ENDCHAR
STARTCHAR K
ENCODING 75
SWIDTH 650 0
DWIDTH 26 0
BBX 23 29 2 0
BITMAP
F0003E
F0007C
F000F8
F001F0
F003E0
F007C0
F00F80
F01F00
F03E00
F07C00
F0F800
F1F000
F3F000
F7F800
FFFC00
FF3C00
FE3E00
FC1F00
F80F00
F00F80
F007C0
F003E0
F001E0
F001F0
F000F8
F00078
F0007C
F0003E
F0001E
ENDCHAR
STARTCHAR L
ENCODING 76
SWIDTH 550 0
DWIDTH 22 0
BBX 18 29 2 0
BITMAP
F00000
F00000
F00000
F00000
F00000
F00000
F00000
F00000
F00000
F00000
F00000
F00000
F00000
F00000
F00000
F00000
F00000
F00000
F00000
F00000
F00000
F00000
F00000
F00000
F00000
FFFFC0
FFFFC0
FFFFC0
FFFFC0
ENDCHAR
STARTCHAR M
ENCODING 77
SWIDTH 825 0
DWIDTH 33 0
BBX 27 29 3 0
BITMAP
FE000FE0
FE000FE0
FF001FE0
FF001FE0
FF001FE0
FF001FE0
FF803FE0
F7803DE0
F7803DE0
F3C079E0
F3C079E0
F3C079E0
F3E0F9E0
F1E0F1E0
F1E0F1E0
F1F1F1E0
F0F1E1E0
F0F1E1E0
F0FBE1E0
F07BC1E0
F07FC1E0
F07FC1E0
F03FC1E0
F03F81E0
F03F81E0
F01F01E0
F01F01E0
F00E01E0
F00E01E0
ENDCHAR
STARTCHAR N
ENCODING 78
SWIDTH 725 0
DWIDTH 29 0
BBX 23 29 3 0
BITMAP
F8001E
FC001E
FC001E
FE001E
FE001E
FF001E
F7801E
F7801E
F3C01E
F3C01E
F1E01E
F1F01E
F0F01E
F0781E
F07C1E
F03C1E
F01E1E
F01F1E
F00F1E
F0079E
F0079E
F003DE
F003FE
F001FE
F000FE
F000FE
F0007E
F0003E
F0003E
ENDCHAR
STARTCHAR O
ENCODING 79
SWIDTH 725 0
DWIDTH 29 0
BBX 27 30 1 0
BITMAP
003F8000
01FFF000
03FFF800
0FFFFE00
1FC07F00
1F001F80
3E000F80
7C0007C0
7C0007C0
780003E0
F80003E0
F00001E0
F00001E0
F00001E0
F00001E0
F00001E0
F00001E0
F00001E0
F00001E0
F80003C0
780003C0
7C0007C0
7C000780
3E000F80
1F001F00
1FC07F00
0FFFFE00
03FFF800
01FFF000
003F8000
ENDCHAR
STARTCHAR P
ENCODING 80
SWIDTH 675 0
DWIDTH 27 0
BBX 21 29 3 0
BITMAP
FFFE00
FFFFC0
FFFFE0
FFFFF0
F001F0
F00078
F00078
F00038
F00038
F00078
F00078
F001F0
FFFFF0
FFFFE0
FFFFC0
FFFE00
F00000
F00000
F00000
F00000
F00000
F00000
F00000
F00000
F00000
F00000
F00000
F00000
F00000
ENDCHAR
STARTCHAR Q
ENCODING 81
SWIDTH 725 0
DWIDTH 29 0
BBX 27 32 1 -2
BITMAP
003F8000
01FFF000
03FFF800
0FFFFE00
1FC07F00
1F001F80
3E000F80
7C0007C0
7C0007C0
780003E0
F80003E0
F00001E0
F00001E0
F00001E0
F00001E0
F00001E0
F00001E0
F00001E0
F00001E0
F80003C0
780003C0
7C00C7C0
7C01E780
3E01FF80
1F00FF00
1FC07F00
0FFFFF00
03FFFF80
01FFF7C0
003F83E0
000001C0
00000080
ENDCHAR
STARTCHAR R
ENCODING 82
SWIDTH 725 0
DWIDTH 29 0
BBX 23 29 3 0
BITMAP
FFFE00
FFFFC0
FFFFE0
FFFFF0
F001F0
F00078
F00078
F00038
F00038
F00078
F00078
F001F0
FFFFF0
FFFFE0
FFFFC0
FFFFE0
F001F0
F000F0
F00078
F00078
F00078
F00078
F00078
F0003C
F0003C
F0003C
F0003C
F0003C
F0003E
ENDCHAR
STARTCHAR S
ENCODING 83
SWIDTH 675 0
DWIDTH 27 0
BBX 24 30 1 0
BITMAP
007F80
03FFE0
07FFF8
0FFFFC
1FC1FE
1E003E
3E003F
3E001F
3C001F
3C0000
3E0000
1F8000
1FFC00
0FFFC0
07FFF0
00FFF8
000FFC
00007E
00001E
00000F
F00007
F80007
78000F
7C000F
3E001E
3F807E
1FFFFC
0FFFF8
03FFE0
00FF80
ENDCHAR
STARTCHAR T
ENCODING 84
SWIDTH 600 0
DWIDTH 24 0
BBX 24 29 0 0
BITMAP
FFFFFF
FFFFFF
FFFFFF
FFFFFF
003C00
003C00
003C00
003C00
003C00
003C00
003C00
003C00
003C00
003C00
003C00
003C00
003C00
003C00
003C00
003C00
003C00
003C00
003C00
003C00
003C00
003C00
003C00
003C00
003C00
ENDCHAR
STARTCHAR U
ENCODING 85
SWIDTH 725 0
DWIDTH 29 0
BBX 23 29 3 0
BITMAP
F0001E
F0001E
F0001E
F0001E
F0001E
F0001E
F0001E
F0001E
F0001E
F0001E
F0001E
F0001E
F0001E
F0001E
F0001E
F0001E
F0001E
F0001E
F0001E
F0001E
F0001E
F0001E
F8003E
7C007C
7F83FC
3FFFF8
1FFFF0
07FFC0
00FE00
ENDCHAR
STARTCHAR V
ENCODING 86
SWIDTH 675 0
DWIDTH 27 0
BBX 27 29 0 0
BITMAP
F00001E0
F80003E0
7C0007C0
7C0007C0
3E000F80
3E000F80
1E000F00
1F001F00
1F001F00
0F803E00
0F803E00
0F803E00
07C07C00
07C07C00
03C07800
03E0F800
03E0F800
01F1F000
01F1F000
00F1E000
00FBE000
00FBE000
007FC000
007FC000
003F8000
003F8000
003F8000
001F0000
001F0000
ENDCHAR
STARTCHAR W
ENCODING 87
SWIDTH 950 0
DWIDTH 38 0
BBX 38 30 0 0
BITMAP
0000780000
F00078003C
F000FC003C
7800FC0078
7800FC0078
7801FE0078
3C01FE00F0
3C01FE00F0
3C01FE00F0
1E03CF01E0
1E03CF01E0
1E03CF01E0
1E038701E0
0F078783C0
0F078783C0
0F070383C0
0F0F03C3C0
078F03C780
078F03C780
078E01C780
079E01E780
03DE01EF00
03DC00EF00
03FC00FF00
01FC00FE00
01F8007E00
01F8007E00
01F8007E00
00F0003C00
00F0003C00
ENDCHAR
STARTCHAR X
ENCODING 88
SWIDTH 675 0
DWIDTH 27 0
BBX 27 29 0 0
BITMAP
F80003E0
7C0007C0
3C000780
3E000F80
1F001F00
0F803E00
07803C00
07C07C00
03E0F800
01F1F000
00F1E000
007FC000
003F8000
001F0000
001F0000
003F8000
007FC000
007FC000
00F1E000
01F1F000
03E0F800
03C07800
07C07C00
0F803E00
1F001F00
1E000F00
3E000F80
7C0007C0
F80003E0
ENDCHAR
STARTCHAR Y
ENCODING 89
SWIDTH 650 0
DWIDTH 26 0
BBX 26 29 0 0
BITMAP
F80007C0
78000780
3C000F00
3E001F00
1E001E00
1F003E00
0F003C00
07807800
07C0F800
03C0F000
01E1E000
01F3E000
00F3C000
007F8000
007F8000
003F0000
003F0000
001E0000
001E0000
001E0000
001E0000
001E0000
001E0000
001E0000
001E0000
001E0000
001E0000
001E0000
001E0000
ENDCHAR
STARTCHAR Z
ENCODING 90
SWIDTH 600 0
DWIDTH 24 0
BBX 22 29 1 0
BITMAP
FFFFFC
FFFFFC
FFFFFC
FFFFFC
0000F8
0000F0
0001F0
0003E0
0007C0
000780
000F00
001F00
003E00
003C00
007800
00F000
01F000
01E000
03C000
078000
0F0000
0F0000
1E0000
3E0000
7C0000
7FFFFC
FFFFFC
FFFFFC
FFFFFC
ENDCHAR
STARTCHAR bracketleft
ENCODING 91
SWIDTH 275 0
DWIDTH 11 0
BBX 9 38 2 -9
BITMAP
FF80
FF80
FF80
F000
F000
F000
F000
F000
F000
F000
F000
F000
F000
F000
F000
F000
F000
F000
F000
F000
F000
F000
F000
F000
F000
F000
F000
F000
F000
F000
F000
F000
F000
F000
F000
FF80
FF80
FF80
ENDCHAR
STARTCHAR backslash
ENCODING 92
SWIDTH 275 0
DWIDTH 11 0
BBX 11 33 0 -3
BITMAP
E000
E000
E000
6000
7000
7000
3000
3800
3800
1800
1800
1C00
1C00
0C00
0C00
0E00
0E00
0600
0600
0700
0700
0300
0300
0380
0380
0180
0180
01C0
01C0
00C0
00E0
00E0
00E0
ENDCHAR
STARTCHAR bracketright
ENCODING 93
SWIDTH 275 0
DWIDTH 11 0
BBX 9 38 0 -9
BITMAP
FF80
FF80
FF80
0780
0780
0780
0780
0780
0780
0780
0780
0780
0780
0780
0780
0780
0780
0780
0780
0780
0780
0780
0780
0780
0780
0780
0780
0780
0780
0780
0780
0780
0780
0780
0780
FF80
FF80
FF80
ENDCHAR
STARTCHAR asciicircum
ENCODING 94
SWIDTH 325 0
DWIDTH 13 0
BBX 13 8 0 22
BITMAP
0700
0F80
1FC0
3FE0
7DF0
F8F8
F078
E038
ENDCHAR
STARTCHAR underscore
ENCODING 95
SWIDTH 550 0
DWIDTH 22 0
BBX 22 3 0 -6
BITMAP
FFFFFC
FFFFFC
FFFFFC
ENDCHAR
STARTCHAR grave
ENCODING 96
SWIDTH 325 0
DWIDTH 13 0
BBX 8 7 2 22
BITMAP
F0
78
38
1C
0E
06
03
ENDCHAR
STARTCHAR a
ENCODING 97
SWIDTH 550 0
DWIDTH 22 0
BBX 20 21 1 0
BITMAP
01F800
07FF00
1FFF80
3E0F80
3C03C0
7803C0
7803C0
001FC0
01FFC0
0FFFC0
3FE3C0
7E03C0
7803C0
F003C0
F003C0
F007C0
F00FC0
7C3FC0
7FFBF0
3FF3F0
0FC0E0
ENDCHAR
STARTCHAR b
ENCODING 98
SWIDTH 550 0
DWIDTH 22 0
BBX 18 29 2 0
BITMAP
F00000
F00000
F00000
F00000
F00000
F00000
F00000
F00000
F1E000
F7FC00
FFFE00
FE3F00
F80F80
F00780
F00780
F003C0
F003C0
F003C0
F003C0
F003C0
F003C0
F003C0
F00780
F00780
F80F80
FE3F00
FFFE00
F7FC00
F1E000
ENDCHAR
STARTCHAR c
ENCODING 99
SWIDTH 525 0
DWIDTH 21 0
BBX 18 21 1 0
BITMAP
01F000
0FFE00
1FFF00
3F1F80
7C07C0
7803C0
7803C0
F00000
F00000
F00000
F00000
F00000
F00000
F00000
7803C0
7803C0
7C07C0
3F1F80
1FFF00
0FFE00
01F000
ENDCHAR
STARTCHAR d
ENCODING 100
SWIDTH 550 0
DWIDTH 22 0
BBX 18 29 2 0
BITMAP
0003C0
0003C0
0003C0
0003C0
0003C0
0003C0
0003C0
0003C0
01E3C0
0FFBC0
1FFFC0
3F1FC0
7C07C0
7803C0
7803C0
F003C0
F003C0
F003C0
F003C0
F003C0
F003C0
F003C0
7803C0
7803C0
7C07C0
3F1FC0
1FFFC0
0FFBC0
01E3C0
ENDCHAR
STARTCHAR e
ENCODING 101
SWIDTH 550 0
DWIDTH 22 0
BBX 19 21 1 0
BITMAP
01F000
0FFE00
1FFF00
3F1F80
7C07C0
7803C0
7803C0
F001E0
FFFFE0
FFFFE0
FFFFE0
F00000
F00000
F00000
7803C0
7803C0
7C07C0
3F1F80
1FFF00
0FFE00
01F000
ENDCHAR
STARTCHAR f
ENCODING 102
SWIDTH 275 0
DWIDTH 11 0
BBX 11 29 0 0
BITMAP
03E0
0FE0
0FE0
1FE0
1F00
1E00
1E00
1E00
1E00
1E00
FFE0
FFE0
FFE0
1E00
1E00
1E00
1E00
1E00
1E00
1E00
1E00
1E00
1E00
1E00
1E00
1E00
1E00
1E00
1E00
ENDCHAR
STARTCHAR g
ENCODING 103
SWIDTH 550 0
DWIDTH 22 0
BBX 18 29 2 -8
BITMAP
01E000
0FFBC0
1FFFC0
3F1FC0
7C07C0
7803C0
7803C0
F003C0
F003C0
F003C0
F003C0
F003C0
F003C0
F003C0
7803C0
7803C0
7C07C0
3F1FC0
1FFFC0
0FFBC0
01E3C0
0003C0
0003C0
7803C0
7C0780
3F1F80
3FFF00
0FFE00
01F000
ENDCHAR
STARTCHAR h
ENCODING 104
SWIDTH 550 0
DWIDTH 22 0
BBX 17 29 2 0
BITMAP
F00000
F00000
F00000
F00000
F00000
F00000
F00000
F00000
F00000
F1F000
F7FC00
FFFE00
FE1F00
F80F00
F80780
F00780
F00780
F00780
F00780
F00780
F00780
F00780
F00780
F00780
F00780
F00780
F00780
F00780
F00780
ENDCHAR
STARTCHAR i
ENCODING 105
SWIDTH 225 0
DWIDTH 9 0
BBX 4 30 2 0
BITMAP
F0
F0
F0
F0
00
00
00
00
F0
F0
F0
F0
F0
F0
F0
F0
F0
F0
F0
F0
F0
F0
F0
F0
F0
F0
F0
F0
F0
F0
ENDCHAR
STARTCHAR j
ENCODING 106
SWIDTH 225 0
DWIDTH 9 0
BBX 7 37 1 -7
BITMAP
1E
1E
1E
1E
00
00
00
00
1E
1E
1E
1E
1E
1E
1E
1E
1E
1E
1E
1E
1E
1E
1E
1E
1E
1E
1E
1E
1E
1E
1E
1E
1E
1E
FC
FC
F0
ENDCHAR
STARTCHAR k
ENCODING 107
SWIDTH 500 0
DWIDTH 20 0
BBX 16 29 2 0
BITMAP
F000
F000
F000
F000
F000
F000
F000
F000
F000
F01E
F03C
F078
F0F0
F1E0
F3C0
F780
FFC0
FFC0
FDE0
F9E0
F0F0
F0F0
F078
F078
F03C
F03C
F01E
F01E
F00F
ENDCHAR
STARTCHAR l
ENCODING 108
SWIDTH 225 0
DWIDTH 9 0
BBX 4 30 2 0
BITMAP
F0
F0
F0
F0
F0
F0
F0
F0
F0
F0
F0
F0
F0
F0
F0
F0
F0
F0
F0
F0
F0
F0
F0
F0
F0
F0
F0
F0
F0
F0
ENDCHAR
STARTCHAR m
ENCODING 109
SWIDTH 825 0
DWIDTH 33 0
BBX 28 21 2 0
BITMAP
03E07E00
F7F9FF80
FFFFFFC0
FC3FC3E0
F81F81E0
F80F80F0
F00F00F0
F00F00F0
F00F00F0
F00F00F0
F00F00F0
F00F00F0
F00F00F0
F00F00F0
F00F00F0
F00F00F0
F00F00F0
F00F00F0
F00F00F0
F00F00F0
F00F00F0
ENDCHAR
STARTCHAR n
ENCODING 110
SWIDTH 550 0
DWIDTH 22 0
BBX 17 21 2 0
BITMAP
01F000
F7FC00
FFFE00
FE1F00
F80F00
F80780
F00780
F00780
F00780
F00780
F00780
F00780
F00780
F00780
F00780
F00780
F00780
F00780
F00780
F00780
F00780
ENDCHAR
STARTCHAR o
ENCODING 111
SWIDTH 575 0
DWIDTH 23 0
BBX 20 21 1 0
BITMAP
01F800
0FFF00
1FFF80
3FFFC0
7F0FE0
7C03E0
7801E0
F801F0
F000F0
F000F0
F000F0
F000F0
F000F0
F801F0
7801E0
7C03E0
7F0FE0
3FFFC0
1FFF80
0FFF00
01F800
ENDCHAR
STARTCHAR p
ENCODING 112
SWIDTH 550 0
DWIDTH 22 0
BBX 18 29 2 -8
BITMAP
01E000
F7FC00
FFFE00
FFFF00
FE3F80
F80F80
F00780
F007C0
F003C0
F003C0
F003C0
F003C0
F003C0
F007C0
F00780
F80F80
FE3F80
FFFF00
FFFE00
F7FC00
F1E000
F00000
F00000
F00000
F00000
F00000
F00000
F00000
F00000
ENDCHAR
STARTCHAR q
ENCODING 113
SWIDTH 550 0
DWIDTH 22 0
BBX 18 29 2 -8
BITMAP
01E000
0FFBC0
1FFFC0
3FFFC0
7F1FC0
7C07C0
7803C0
F803C0
F003C0
F003C0
F003C0
F003C0
F003C0
F803C0
7803C0
7C07C0
7F1FC0
3FFFC0
1FFFC0
0FFBC0
01E3C0
0003C0
0003C0
0003C0
0003C0
0003C0
0003C0
0003C0
0003C0
ENDCHAR
STARTCHAR r
ENCODING 114
SWIDTH 325 0
DWIDTH 13 0
BBX 10 21 1 0
BITMAP
01C0
F7C0
FFC0
FE00
F800
F800
F000
F000
F000
F000
F000
F000
F000
F000
F000
F000
F000
F000
F000
F000
F000
ENDCHAR
STARTCHAR s
ENCODING 115
SWIDTH 500 0
DWIDTH 20 0
BBX 17 21 1 0
BITMAP
07F000
1FFC00
7FFE00
7E3F00
F80F00
F00F00
F00000
FC0000
7FC000
3FF800
0FFE00
01FF00
003F00
000F80
F00780
F00780
F80F80
7E3F00
7FFF00
1FFE00
07F800
ENDCHAR
STARTCHAR t
ENCODING 116
SWIDTH 275 0
DWIDTH 11 0
BBX 10 29 0 0
BITMAP
1E00
1E00
1E00
1E00
1E00
1E00
1E00
FFC0
FFC0
FFC0
1E00
1E00
1E00
1E00
1E00
1E00
1E00
1E00
1E00
1E00
1E00
1E00
1E00
1E00
1E00
1F00
0FC0
0FC0
07C0
ENDCHAR
STARTCHAR u
ENCODING 117
SWIDTH 550 0
DWIDTH 22 0
BBX 17 21 2 0
BITMAP
F00780
F00780
F00780
F00780
F00780
F00780
F00780
F00780
F00780
F00780
F00780
F00780
F00780
F00780
F00780
F00F80
780F80
7C3F80
3FFF80
1FF780
07C780
ENDCHAR
STARTCHAR v
ENCODING 118
SWIDTH 475 0
DWIDTH 19 0
BBX 18 20 0 0
BITMAP
E001C0
F003C0
F003C0
700380
780780
780780
3C0F00
3C0F00
1C0E00
1E1E00
1E1E00
0E1C00
0F3C00
073800
07F800
07F800
03F000
03F000
01E000
01E000
ENDCHAR
STARTCHAR w
ENCODING 119
SWIDTH 725 0
DWIDTH 29 0
BBX 28 20 0 0
BITMAP
F00F00F0
F00F00F0
F01F80F0
781F81E0
781F81E0
783FC1E0
3839C1C0
3839C1C0
3C39C3C0
1C39C380
1C70E380
1E70E780
0E70E700
0E70E700
0FE07F00
07E07E00
07E07E00
03C03C00
03C03C00
03C03C00
ENDCHAR
STARTCHAR x
ENCODING 120
SWIDTH 525 0
DWIDTH 21 0
BBX 20 21 0 0
BITMAP
7C03E0
3C03C0
1E0780
0F0F00
0F9F00
079E00
03FC00
03FC00
01F800
01F800
01F800
01F800
03FC00
079E00
079E00
0F0F00
1E0780
1E0780
3C03C0
7801E0
F801F0
ENDCHAR
STARTCHAR y
ENCODING 121
SWIDTH 500 0
DWIDTH 20 0
BBX 17 28 1 -8
BITMAP
E00380
F00780
F00780
700700
780F00
780F00
380E00
3C1E00
3C1E00
1C1C00
1E3C00
1E3C00
0F7800
0F7800
07F000
07F000
07F000
03E000
03E000
03E000
01C000
03C000
03C000
038000
078000
7F0000
7F0000
7C0000
ENDCHAR
STARTCHAR z
ENCODING 122
SWIDTH 500 0
DWIDTH 20 0
BBX 18 20 1 0
BITMAP
FFFFC0
FFFFC0
FFFFC0
0007C0
000F80
001F00
003E00
007C00
00F800
01F000
03E000
07C000
0F8000
1F0000
3E0000
7C0000
F80000
FFFFC0
FFFFC0
FFFFC0
ENDCHAR
STARTCHAR braceleft
ENCODING 123
SWIDTH 325 0
DWIDTH 13 0
BBX 12 38 0 -8
BITMAP
00F0
03F0
03F0
07C0
0780
0780
0780
0780
0780
0780
0780
0780
0780
0780
0780
0F00
3F00
FE00
F800
FE00
3F00
0F00
0780
0780
0780
0780
0780
0780
0780
0780
0780
0780
0780
0780
07C0
03F0
03F0
00F0
ENDCHAR
STARTCHAR bar
ENCODING 124
SWIDTH 250 0
DWIDTH 10 0
BBX 4 40 3 -9
BITMAP
F0
F0
F0
F0
F0
F0
F0
F0
F0
F0
F0
F0
F0
F0
F0
F0
F0
F0
F0
F0
F0
F0
F0
F0
F0
F0
F0
F0
F0
F0
F0
F0
F0
F0
F0
F0
F0
F0
F0
F0
ENDCHAR
STARTCHAR braceright
ENCODING 125
SWIDTH 325 0
DWIDTH 13 0
BBX 12 38 0 -8
BITMAP
F000
FC00
FC00
3E00
1E00
1E00
1E00
1E00
1E00
1E00
1E00
1E00
1E00
1E00
1E00
0F00
0FC0
07F0
01F0
07F0
0FC0
0F00
1E00
1E00
1E00
1E00
1E00
1E00
1E00
1E00
1E00
1E00
1E00
1E00
3E00
FC00
FC00
F000
ENDCHAR
STARTCHAR asciitilde
ENCODING 126
SWIDTH 325 0
DWIDTH 13 0
BBX 12 4 0 26
BITMAP
1E30
7FF0
FFE0
C780
ENDCHAR
STARTCHAR uni007F
ENCODING 127
SWIDTH 975 0
DWIDTH 39 0
BBX 39 40 0 -8
BITMAP
FE07F03F80
FE07F03F80
FE07F03F80
FE07F03F80
FE07F03F80
FE07F03F80
FE07F03F80
01F80FC07E
01F80FC07E
01F80FC07E
01F80FC07E
01F80FC07E
01F80FC07E
FE07F03F80
FE07F03F80
FE07F03F80
FE07F03F80
FE07F03F80
FE07F03F80
FE07F03F80
01F80FC07E
01F80FC07E
01F80FC07E
01F80FC07E
01F80FC07E
01F80FC07E
01F80FC07E
FE07F03F80
FE07F03F80
FE07F03F80
FE07F03F80
FE07F03F80
FE07F03F80
FE07F03F80
01F80FC07E
01F80FC07E
01F80FC07E
01F80FC07E
01F80FC07E
01F80FC07E
ENDCHAR
STARTCHAR Euro
ENCODING 128
SWIDTH 275 0
DWIDTH 11 0
BBX 4 4 3 0
BITMAP
F0
F0
F0
F0
ENDCHAR
STARTCHAR NameMe.129
ENCODING 129
SWIDTH 275 0
DWIDTH 11 0
BBX 4 4 3 0
BITMAP
F0
F0
F0
F0
ENDCHAR
STARTCHAR quotesinglbase
ENCODING 130
SWIDTH 275 0
DWIDTH 11 0
BBX 4 4 3 0
BITMAP
F0
F0
F0
F0
ENDCHAR
STARTCHAR florin
ENCODING 131
SWIDTH 275 0
DWIDTH 11 0
BBX 4 4 3 0
BITMAP
F0
F0
F0
F0
ENDCHAR
STARTCHAR quotedblbase
ENCODING 132
SWIDTH 275 0
DWIDTH 11 0
BBX 4 4 3 0
BITMAP
F0
F0
F0
F0
ENDCHAR
STARTCHAR ellipsis
ENCODING 133
SWIDTH 275 0
DWIDTH 11 0
BBX 4 4 3 0
BITMAP
F0
F0
F0
F0
ENDCHAR
STARTCHAR dagger
ENCODING 134
SWIDTH 275 0
DWIDTH 11 0
BBX 4 4 3 0
BITMAP
F0
F0
F0
F0
ENDCHAR
STARTCHAR daggerdbl
ENCODING 135
SWIDTH 275 0
DWIDTH 11 0
BBX 4 4 3 0
BITMAP
F0
F0
F0
F0
ENDCHAR
STARTCHAR circumflex
ENCODING 136
SWIDTH 275 0
DWIDTH 11 0
BBX 4 4 3 0
BITMAP
F0
F0
F0
F0
ENDCHAR
STARTCHAR perthousand
ENCODING 137
SWIDTH 275 0
DWIDTH 11 0
BBX 4 4 3 0
BITMAP
F0
F0
F0
F0
ENDCHAR
STARTCHAR Scaron
ENCODING 138
SWIDTH 275 0
DWIDTH 11 0
BBX 4 4 3 0
BITMAP
F0
F0
F0
F0
ENDCHAR
STARTCHAR guilsinglleft
ENCODING 139
SWIDTH 275 0
DWIDTH 11 0
BBX 4 4 3 0
BITMAP
F0
F0
F0
F0
ENDCHAR
STARTCHAR OE
ENCODING 140
SWIDTH 275 0
DWIDTH 11 0
BBX 4 4 3 0
BITMAP
F0
F0
F0
F0
ENDCHAR
STARTCHAR NameMe.141
ENCODING 141
SWIDTH 275 0
DWIDTH 11 0
BBX 4 4 3 0
BITMAP
F0
F0
F0
F0
ENDCHAR
STARTCHAR Zcaron
ENCODING 142
SWIDTH 275 0
DWIDTH 11 0
BBX 4 4 3 0
BITMAP
F0
F0
F0
F0
ENDCHAR
STARTCHAR NameMe.143
ENCODING 143
SWIDTH 275 0
DWIDTH 11 0
BBX 4 4 3 0
BITMAP
F0
F0
F0
F0
ENDCHAR
STARTCHAR NameMe.144
ENCODING 144
SWIDTH 275 0
DWIDTH 11 0
BBX 4 4 3 0
BITMAP
F0
F0
F0
F0
ENDCHAR
STARTCHAR quoteleft
ENCODING 145
SWIDTH 225 0
DWIDTH 9 0
BBX 4 10 3 20
BITMAP
30
70
60
C0
C0
C0
F0
F0
F0
F0
ENDCHAR
STARTCHAR quoteright
ENCODING 146
SWIDTH 225 0
DWIDTH 9 0
BBX 4 10 2 20
BITMAP
F0
F0
F0
F0
30
30
30
60
E0
C0
ENDCHAR
STARTCHAR quotedblleft
ENCODING 147
SWIDTH 275 0
DWIDTH 11 0
BBX 4 4 3 0
BITMAP
F0
F0
F0
F0
ENDCHAR
STARTCHAR quotedblright
ENCODING 148
SWIDTH 275 0
DWIDTH 11 0
BBX 4 4 3 0
BITMAP
F0
F0
F0
F0
ENDCHAR
STARTCHAR bullet
ENCODING 149
SWIDTH 275 0
DWIDTH 11 0
BBX 4 4 3 0
BITMAP
F0
F0
F0
F0
ENDCHAR
STARTCHAR endash
ENCODING 150
SWIDTH 275 0
DWIDTH 11 0
BBX 4 4 3 0
BITMAP
F0
F0
F0
F0
ENDCHAR
STARTCHAR emdash
ENCODING 151
SWIDTH 275 0
DWIDTH 11 0
BBX 4 4 3 0
BITMAP
F0
F0
F0
F0
ENDCHAR
STARTCHAR tilde
ENCODING 152
SWIDTH 275 0
DWIDTH 11 0
BBX 4 4 3 0
BITMAP
F0
F0
F0
F0
ENDCHAR
STARTCHAR trademark
ENCODING 153
SWIDTH 275 0
DWIDTH 11 0
BBX 4 4 3 0
BITMAP
F0
F0
F0
F0
ENDCHAR
STARTCHAR scaron
ENCODING 154
SWIDTH 275 0
DWIDTH 11 0
BBX 4 4 3 0
BITMAP
F0
F0
F0
F0
ENDCHAR
STARTCHAR guilsinglright
ENCODING 155
SWIDTH 275 0
DWIDTH 11 0
BBX 4 4 3 0
BITMAP
F0
F0
F0
F0
ENDCHAR
STARTCHAR oe
ENCODING 156
SWIDTH 275 0
DWIDTH 11 0
BBX 4 4 3 0
BITMAP
F0
F0
F0
F0
ENDCHAR
STARTCHAR NameMe.157
ENCODING 157
SWIDTH 275 0
DWIDTH 11 0
BBX 4 4 3 0
BITMAP
F0
F0
F0
F0
ENDCHAR
STARTCHAR zcaron
ENCODING 158
SWIDTH 275 0
DWIDTH 11 0
BBX 4 4 3 0
BITMAP
F0
F0
F0
F0
ENDCHAR
STARTCHAR Ydieresis
ENCODING 159
SWIDTH 275 0
DWIDTH 11 0
BBX 4 4 3 0
BITMAP
F0
F0
F0
F0
ENDCHAR
STARTCHAR uni00A0
ENCODING 160
SWIDTH 275 0
DWIDTH 11 0
BBX 1 1 10 -9
BITMAP
00
ENDCHAR
STARTCHAR exclamdown
ENCODING 161
SWIDTH 325 0
DWIDTH 13 0
BBX 4 30 5 0
BITMAP
F0
F0
F0
F0
00
00
00
00
60
60
60
60
60
60
60
F0
F0
F0
F0
F0
F0
F0
F0
F0
F0
F0
F0
F0
F0
F0
ENDCHAR
STARTCHAR cent
ENCODING 162
SWIDTH 550 0
DWIDTH 22 0
BBX 18 29 2 -4
BITMAP
000C00
000C00
001800
01F800
0FFC00
1FFF00
3F3F00
7C3780
7837C0
7863C0
F063C0
F06000
F06000
F0C000
F0C000
F0C000
F0C000
F983C0
7987C0
798780
3F0F80
3F3F00
1FFE00
0FFC00
07F000
060000
060000
0C0000
0C0000
ENDCHAR
STARTCHAR sterling
ENCODING 163
SWIDTH 550 0
DWIDTH 22 0
BBX 20 29 1 0
BITMAP
01FC00
07FF00
1FFFC0
1F07E0
3C01E0
3C01F0
7800F0
7800F0
7800F0
7800F0
780000
3C0000
3C0000
1E0000
FFFC00
FFFC00
078000
078000
078000
078000
070000
0F0000
0E0000
1C0000
3BE020
FFFFF0
7FFFF0
783FF0
3007C0
ENDCHAR
STARTCHAR currency
ENCODING 164
SWIDTH 550 0
DWIDTH 22 0
BBX 20 20 1 9
BITMAP
400020
E00070
71F8E0
3FFFC0
1F0F80
1C0380
180180
3801C0
3000C0
3000C0
3000C0
3000C0
3801C0
180180
1C0380
1F0F80
3FFFC0
71F8E0
E00070
400020
ENDCHAR
STARTCHAR yen
ENCODING 165
SWIDTH 550 0
DWIDTH 22 0
BBX 22 29 0 0
BITMAP
F8007C
780078
7C00F8
3C00F0
1E01E0
1E01E0
0F03C0
0F03C0
078780
078780
FFCFFC
FFCFFC
01FE00
00FC00
FFFFFC
FFFFFC
007800
007800
007800
007800
007800
007800
007800
007800
007800
007800
007800
007800
007800
ENDCHAR
STARTCHAR brokenbar
ENCODING 166
SWIDTH 250 0
DWIDTH 10 0
BBX 4 35 3 -6
BITMAP
F0
F0
F0
F0
F0
F0
F0
F0
F0
F0
F0
F0
F0
F0
F0
00
00
00
00
00
F0
F0
F0
F0
F0
F0
F0
F0
F0
F0
F0
F0
F0
F0
F0
ENDCHAR
STARTCHAR section
ENCODING 167
SWIDTH 550 0
DWIDTH 22 0
BBX 16 33 3 -3
BITMAP
03E0
0FF8
1FFC
1E1E
3C0E
380E
3C00
3C00
1E00
1F80
0FC0
1FF0
3FF8
79FC
70FE
F03E
F01F
780F
7C0F
3F0F
1F9E
0FFE
03FC
01F8
0078
003C
003C
701C
783C
7FF8
3FF8
1FF0
07C0
ENDCHAR
STARTCHAR dieresis
ENCODING 168
SWIDTH 325 0
DWIDTH 13 0
BBX 11 4 1 24
BITMAP
F1E0
F1E0
F1E0
F1E0
ENDCHAR
STARTCHAR copyright
ENCODING 169
SWIDTH 725 0
DWIDTH 29 0
BBX 29 29 0 0
BITMAP
001FC000
00FFF800
01FFFC00
07E03F00
0F000780
1E0003C0
1C0781C0
383FE0E0
787FF0F0
70F87870
70E03870
E1E00038
E1C00038
E1C00038
E1C00038
E1C00038
E1C00038
E1E00038
70E03870
70F87870
787FF0F0
383FE0E0
1C0781C0
1E0003C0
0F000780
07E03F00
01FFFC00
00FFF800
001FC000
ENDCHAR
STARTCHAR ordfeminine
ENCODING 170
SWIDTH 375 0
DWIDTH 15 0
BBX 12 18 1 12
BITMAP
0F00
3FC0
7BC0
60E0
00E0
1FE0
7FE0
7BE0
E0E0
E1E0
77F0
7F70
1C70
0000
0000
7FE0
7FE0
7FE0
ENDCHAR
STARTCHAR guillemotleft
ENCODING 171
SWIDTH 525 0
DWIDTH 21 0
BBX 14 13 3 5
BITMAP
0404
0C0C
3C3C
7C7C
F8F8
E0E0
C0C0
E0E0
F8F8
7C7C
3C3C
0C0C
040C
ENDCHAR
STARTCHAR logicalnot
ENCODING 172
SWIDTH 575 0
DWIDTH 23 0
BBX 17 10 3 8
BITMAP
FFFF80
FFFF80
FFFF80
000380
000380
000380
000380
000380
000380
000380
ENDCHAR
STARTCHAR uni00AD
ENCODING 173
SWIDTH 325 0
DWIDTH 13 0
BBX 9 3 2 8
BITMAP
FF80
FF80
FF80
ENDCHAR
STARTCHAR registered
ENCODING 174
SWIDTH 725 0
DWIDTH 29 0
BBX 29 29 0 0
BITMAP
001FC000
00FFF800
01FFFC00
07E03F00
0F000780
1E0003C0
1C7FE1C0
387FF8E0
787FF8F0
70703C70
70701C70
E0703C38
E07FF838
E07FF838
E07FE038
E071E038
E070E038
E070F038
70707070
70707870
787038F0
38703CE0
1C0001C0
1E0003C0
0F000780
07E03F00
01FFFC00
00FFF800
001FC000
ENDCHAR
STARTCHAR macron
ENCODING 175
SWIDTH 550 0
DWIDTH 22 0
BBX 22 3 0 31
BITMAP
FFFFFC
FFFFFC
FFFFFC
ENDCHAR
STARTCHAR degree
ENCODING 176
SWIDTH 400 0
DWIDTH 16 0
BBX 11 11 2 18
BITMAP
0E00
3F80
71C0
60C0
C060
C060
C060
60C0
71C0
3F80
0E00
ENDCHAR
STARTCHAR plusminus
ENCODING 177
SWIDTH 575 0
DWIDTH 23 0
BBX 19 23 2 0
BITMAP
00E000
00E000
00E000
00E000
00E000
00E000
00E000
FFFFE0
FFFFE0
FFFFE0
00E000
00E000
00E000
00E000
00E000
00E000
00E000
000000
000000
000000
FFFFE0
FFFFE0
FFFFE0
ENDCHAR
STARTCHAR uni00B2
ENCODING 178
SWIDTH 325 0
DWIDTH 13 0
BBX 12 16 1 13
BITMAP
0F00
3FC0
7FE0
F9E0
E070
E070
00E0
01E0
07C0
0F80
3E00
7C00
7000
FFF0
FFF0
FFF0
ENDCHAR
STARTCHAR uni00B3
ENCODING 179
SWIDTH 325 0
DWIDTH 13 0
BBX 13 16 0 13
BITMAP
1F80
7FE0
7FF0
F0F0
E070
00F0
0FE0
0FE0
0FF0
00F8
0038
E038
F078
7FF0
3FF0
0FC0
ENDCHAR
STARTCHAR acute
ENCODING 180
SWIDTH 325 0
DWIDTH 13 0
BBX 8 7 2 24
BITMAP
0F
1E
1C
38
70
60
C0
ENDCHAR
STARTCHAR mu
ENCODING 181
SWIDTH 550 0
DWIDTH 22 0
BBX 22 30 0 -9
BITMAP
03803C
03803C
03803C
07807C
07807C
070078
070078
0F00F8
0F00F8
0F00F8
0E00F0
0E00F0
1E00F0
1E01F0
1E01E0
1F03E0
1F07E0
3FDFF0
3FFEF8
3BFCF8
38F078
780000
780000
780000
780000
700000
700000
F00000
F00000
F00000
ENDCHAR
STARTCHAR paragraph
ENCODING 182
SWIDTH 525 0
DWIDTH 21 0
BBX 17 29 2 0
BITMAP
07FF80
1FFF80
3FC600
7FC600
7FC600
FFC600
FFC600
FFC600
FFC600
7FC600
7FC600
3FC600
1FC600
07C600
00C600
00C600
00C600
00C600
00C600
00C600
00C600
00C600
00C600
00C600
00C600
00C600
00C600
00C600
00C600
ENDCHAR
STARTCHAR periodcentered
ENCODING 183
SWIDTH 275 0
DWIDTH 11 0
BBX 5 5 3 12
BITMAP
70
F8
F8
F8
70
ENDCHAR
STARTCHAR cedilla
ENCODING 184
SWIDTH 325 0
DWIDTH 13 0
BBX 9 8 2 -8
BITMAP
1C00
1E00
1F00
0780
C380
F780
FF00
3E00
ENDCHAR
STARTCHAR uni00B9
ENCODING 185
SWIDTH 325 0
DWIDTH 13 0
BBX 7 16 2 13
BITMAP
06
0E
3E
FE
FE
FE
0E
0E
0E
0E
0E
0E
0E
0E
0E
0E
ENDCHAR
STARTCHAR ordmasculine
ENCODING 186
SWIDTH 375 0
DWIDTH 15 0
BBX 12 18 1 12
BITMAP
0F00
3FC0
7FE0
70E0
E070
E070
E070
E070
E070
71E0
7FE0
3FC0
0F00
0000
0000
FFF0
FFF0
FFF0
ENDCHAR
STARTCHAR guillemotright
ENCODING 187
SWIDTH 525 0
DWIDTH 21 0
BBX 14 13 4 5
BITMAP
8080
C0C0
F0F0
F8F8
7C7C
1C1C
0C0C
1C1C
7C7C
F8F8
F0F0
C0C0
C080
ENDCHAR
STARTCHAR onequarter
ENCODING 188
SWIDTH 825 0
DWIDTH 33 0
BBX 32 30 1 -1
BITMAP
070000C0
0F0001C0
3F000380
FF000380
FF000700
FF000E00
07000E00
07001C00
07001800
07003800
07007000
07006000
0700E038
0701C078
0701C0F8
070380F8
000301F8
000703B8
000E03B8
000E0738
001C0E38
00380E38
00381C38
00701FFF
00601FFF
00E01FFF
01C00038
01C00038
03800038
03000000
ENDCHAR
STARTCHAR onehalf
ENCODING 189
SWIDTH 825 0
DWIDTH 33 0
BBX 31 30 1 -1
BITMAP
070000C0
0F0001C0
3F000380
FF000380
FF000700
FF000E00
07000E00
07001C00
07001800
07003800
07007000
07006000
0700E000
0701C1E0
0701C7F8
07038FFC
00031F3C
00071C0E
000E1C0E
000E001C
001C003C
00380078
003801F0
007007C0
00600F80
00E00E00
01C01FFE
01C01FFE
03801FFE
03000000
ENDCHAR
STARTCHAR threequarters
ENCODING 190
SWIDTH 825 0
DWIDTH 33 0
BBX 32 30 1 -1
BITMAP
1F0000C0
7FC001C0
7FE00380
F1E00380
E0E00700
01C00E00
0FC00E00
0FE01C00
0FF01800
01F03800
00707000
E0706000
F0E0E038
7FE1C078
3FC1C0F8
0F0380F8
000301F8
000703B8
000E03B8
000E0738
001C0E38
00380E38
00381C38
00701FFF
00601FFF
00E01FFF
01C00038
01C00038
03800038
03000000
ENDCHAR
STARTCHAR questiondown
ENCODING 191
SWIDTH 550 0
DWIDTH 22 0
BBX 18 30 2 0
BITMAP
01E000
01E000
01E000
01E000
000000
000000
000000
000000
01E000
01E000
01E000
01E000
03C000
03C000
078000
0F8000
1F0000
3E0000
7C0000
780000
F803C0
F003C0
F003C0
F007C0
F00780
7C1F80
7FFF00
3FFE00
1FFC00
07E000
ENDCHAR
STARTCHAR Agrave
ENCODING 192
SWIDTH 675 0
DWIDTH 27 0
BBX 27 37 0 0
BITMAP
00F00000
00780000
00380000
001C0000
000E0000
00060000
00000000
00000000
001F0000
001F0000
003F8000
003F8000
003F8000
007BC000
007BC000
00F1E000
00F1E000
00F1E000
01E0F000
01E0F000
03C07800
03C07800
03C07800
07803C00
07803C00
0FFFFE00
0FFFFE00
0FFFFE00
1FFFFF00
1E000F00
1C000700
3C000780
3C000780
780003C0
780003C0
F80003E0
F00001E0
ENDCHAR
STARTCHAR Aacute
ENCODING 193
SWIDTH 675 0
DWIDTH 27 0
BBX 27 37 0 0
BITMAP
0003C000
00078000
00070000
000E0000
000C0000
00180000
00000000
00000000
001F0000
001F0000
003F8000
003F8000
003F8000
007BC000
007BC000
00F1E000
00F1E000
00F1E000
01E0F000
01E0F000
03C07800
03C07800
03C07800
07803C00
07803C00
0FFFFE00
0FFFFE00
0FFFFE00
1FFFFF00
1E000F00
1C000700
3C000780
3C000780
780003C0
780003C0
F80003E0
F00001E0
ENDCHAR
STARTCHAR Acircumflex
ENCODING 194
SWIDTH 675 0
DWIDTH 27 0
BBX 27 37 0 0
BITMAP
000E0000
001F0000
003F8000
007BC000
00F1E000
01E0F000
00000000
00000000
001F0000
001F0000
003F8000
003F8000
003F8000
007BC000
007BC000
00F1E000
00F1E000
00F1E000
01E0F000
01E0F000
03C07800
03C07800
03C07800
07803C00
07803C00
0FFFFE00
0FFFFE00
0FFFFE00
1FFFFF00
1E000F00
1C000700
3C000780
3C000780
780003C0
780003C0
F80003E0
F00001E0
ENDCHAR
STARTCHAR Atilde
ENCODING 195
SWIDTH 675 0
DWIDTH 27 0
BBX 27 36 0 0
BITMAP
001E3000
007FF000
00FFE000
00C78000
00000000
00000000
00000000
001F0000
001F0000
003F8000
003F8000
003F8000
007BC000
007BC000
00F1E000
00F1E000
00F1E000
01E0F000
01E0F000
03C07800
03C07800
03C07800
07803C00
07803C00
0FFFFE00
0FFFFE00
0FFFFE00
1FFFFF00
1E000F00
1C000700
3C000780
3C000780
780003C0
780003C0
F80003E0
F00001E0
ENDCHAR
STARTCHAR Adieresis
ENCODING 196
SWIDTH 675 0
DWIDTH 27 0
BBX 27 36 0 0
BITMAP
00F1E000
00F1E000
00F1E000
00F1E000
00000000
00000000
00000000
001F0000
001F0000
003F8000
003F8000
003F8000
007BC000
007BC000
00F1E000
00F1E000
00F1E000
01E0F000
01E0F000
03C07800
03C07800
03C07800
07803C00
07803C00
0FFFFE00
0FFFFE00
0FFFFE00
1FFFFF00
1E000F00
1C000700
3C000780
3C000780
780003C0
780003C0
F80003E0
F00001E0
ENDCHAR
STARTCHAR Aring
ENCODING 197
SWIDTH 675 0
DWIDTH 27 0
BBX 27 37 0 0
BITMAP
001F0000
007F8000
00738000
00E1C000
00E1C000
00738000
007F8000
001E0000
001F0000
001F0000
003F8000
003F8000
003F8000
007BC000
007BC000
00F1E000
00F1E000
00F1E000
01E0F000
01E0F000
03C07800
03C07800
03C07800
07803C00
07803C00
0FFFFE00
0FFFFE00
0FFFFE00
1FFFFF00
1E000F00
1C000700
3C000780
3C000780
780003C0
780003C0
F80003E0
F00001E0
ENDCHAR
STARTCHAR AE
ENCODING 198
SWIDTH 1000 0
DWIDTH 40 0
BBX 40 29 0 0
BITMAP
000FFFFFFF
000FFFFFFF
001FFFFFFF
001E0FFFFF
001E0F0000
003C0F0000
003C0F0000
00780F0000
00780F0000
00F00F0000
00F00F0000
01E00F0000
01E00FFFFC
01E00FFFFC
03C00FFFFC
03C00FFFFC
07800F0000
07FFFF0000
07FFFF0000
0FFFFF0000
0FFFFF0000
1E000F0000
1E000F0000
3C000F0000
3C000F0000
3C000FFFFF
78000FFFFF
78000FFFFF
F8000FFFFF
ENDCHAR
STARTCHAR Ccedilla
ENCODING 199
SWIDTH 725 0
DWIDTH 29 0
BBX 26 38 1 -8
BITMAP
003F8000
01FFF000
03FFF800
0FFFFE00
1FC07F00
1F001F80
3E000F80
7C0007C0
7C0007C0
78000000
F8000000
F0000000
F0000000
F0000000
F0000000
F0000000
F0000000
F0000000
F0000000
F80003C0
780003C0
7C0007C0
7C000780
3E000F80
1F001F00
1FC07F00
0FFFFE00
03FFF800
01FFF000
003F8000
000E0000
000F0000
000F8000
0003C000
0061C000
007BC000
007F8000
001F0000
ENDCHAR
STARTCHAR Egrave
ENCODING 200
SWIDTH 675 0
DWIDTH 27 0
BBX 23 37 2 0
BITMAP
03C000
01E000
00E000
007000
003800
001800
000000
000000
FFFFFE
FFFFFE
FFFFFE
FFFFFE
F00000
F00000
F00000
F00000
F00000
F00000
F00000
F00000
FFFFF8
FFFFF8
FFFFF8
FFFFF8
F00000
F00000
F00000
F00000
F00000
F00000
F00000
F00000
F00000
FFFFFE
FFFFFE
FFFFFE
FFFFFE
ENDCHAR
STARTCHAR Eacute
ENCODING 201
SWIDTH 675 0
DWIDTH 27 0
BBX 23 37 2 0
BITMAP
000F00
001E00
001C00
003800
003000
006000
000000
000000
FFFFFE
FFFFFE
FFFFFE
FFFFFE
F00000
F00000
F00000
F00000
F00000
F00000
F00000
F00000
FFFFF8
FFFFF8
FFFFF8
FFFFF8
F00000
F00000
F00000
F00000
F00000
F00000
F00000
F00000
F00000
FFFFFE
FFFFFE
FFFFFE
FFFFFE
ENDCHAR
STARTCHAR Ecircumflex
ENCODING 202
SWIDTH 675 0
DWIDTH 27 0
BBX 23 37 2 0
BITMAP
003800
007C00
00FE00
01EF00
03C780
0783C0
000000
000000
FFFFFE
FFFFFE
FFFFFE
FFFFFE
F00000
F00000
F00000
F00000
F00000
F00000
F00000
F00000
FFFFF8
FFFFF8
FFFFF8
FFFFF8
F00000
F00000
F00000
F00000
F00000
F00000
F00000
F00000
F00000
FFFFFE
FFFFFE
FFFFFE
FFFFFE
ENDCHAR
STARTCHAR Edieresis
ENCODING 203
SWIDTH 675 0
DWIDTH 27 0
BBX 23 29 2 0
BITMAP
FFFFFE
FFFFFE
FFFFFE
FFFFFE
F00000
F00000
F00000
F00000
F00000
F00000
F00000
F00000
FFFFF8
FFFFF8
FFFFF8
FFFFF8
F00000
F00000
F00000
F00000
F00000
F00000
F00000
F00000
F00000
FFFFFE
FFFFFE
FFFFFE
FFFFFE
ENDCHAR
STARTCHAR Igrave
ENCODING 204
SWIDTH 250 0
DWIDTH 10 0
BBX 7 37 0 0
BITMAP
F0
78
38
1C
0C
06
00
00
1E
1E
1E
1E
1E
1E
1E
1E
1E
1E
1E
1E
1E
1E
1E
1E
1E
1E
1E
1E
1E
1E
1E
1E
1E
1E
1E
1E
1E
ENDCHAR
STARTCHAR Iacute
ENCODING 205
SWIDTH 250 0
DWIDTH 10 0
BBX 7 37 3 0
BITMAP
1E
3C
38
70
60
C0
00
00
F0
F0
F0
F0
F0
F0
F0
F0
F0
F0
F0
F0
F0
F0
F0
F0
F0
F0
F0
F0
F0
F0
F0
F0
F0
F0
F0
F0
F0
ENDCHAR
STARTCHAR Icircumflex
ENCODING 206
SWIDTH 250 0
DWIDTH 10 0
BBX 10 37 0 0
BITMAP
0C00
1E00
3F00
7F80
F3C0
E1C0
0000
0000
1E00
1E00
1E00
1E00
1E00
1E00
1E00
1E00
1E00
1E00
1E00
1E00
1E00
1E00
1E00
1E00
1E00
1E00
1E00
1E00
1E00
1E00
1E00
1E00
1E00
1E00
1E00
1E00
1E00
ENDCHAR
STARTCHAR Idieresis
ENCODING 207
SWIDTH 250 0
DWIDTH 10 0
BBX 10 36 0 0
BITMAP
F3C0
F3C0
F3C0
F3C0
0000
0000
0000
1E00
1E00
1E00
1E00
1E00
1E00
1E00
1E00
1E00
1E00
1E00
1E00
1E00
1E00
1E00
1E00
1E00
1E00
1E00
1E00
1E00
1E00
1E00
1E00
1E00
1E00
1E00
1E00
1E00
ENDCHAR
STARTCHAR Eth
ENCODING 208
SWIDTH 725 0
DWIDTH 29 0
BBX 27 29 0 0
BITMAP
1FFF8000
1FFFF000
1FFFF800
1FFFFE00
1E007F00
1E001F00
1E000F80
1E0007C0
1E0003C0
1E0003C0
1E0001E0
1E0001E0
FFFE01E0
FFFE01E0
FFFE01E0
FFFE01E0
1E0001E0
1E0001E0
1E0001E0
1E0003C0
1E0003C0
1E0007C0
1E000F80
1E001F00
1E007F00
1FFFFE00
1FFFF800
1FFFF000
1FFF8000
ENDCHAR
STARTCHAR Ntilde
ENCODING 209
SWIDTH 725 0
DWIDTH 29 0
BBX 23 36 3 0
BITMAP
0078C0
01FFC0
03FF80
031E00
000000
000000
000000
F8001E
FC001E
FC001E
FE001E
FE001E
FF001E
F7801E
F7801E
F3C01E
F3C01E
F1E01E
F1F01E
F0F01E
F0781E
F07C1E
F03C1E
F01E1E
F01F1E
F00F1E
F0079E
F0079E
F003DE
F003FE
F001FE
F000FE
F000FE
F0007E
F0003E
F0003E
ENDCHAR
STARTCHAR Ograve
ENCODING 210
SWIDTH 775 0
DWIDTH 31 0
BBX 27 37 2 0
BITMAP
00F00000
00780000
00380000
001C0000
000E0000
00060000
00000000
003F8000
01FFF000
03FFF800
0FFFFE00
1FC07F00
1F001F80
3E000F80
7C0007C0
7C0007C0
780003E0
F80003E0
F00001E0
F00001E0
F00001E0
F00001E0
F00001E0
F00001E0
F00001E0
F00001E0
F80003C0
780003C0
7C0007C0
7C000780
3E000F80
1F001F00
1FC07F00
0FFFFE00
03FFF800
01FFF000
003F8000
ENDCHAR
STARTCHAR Oacute
ENCODING 211
SWIDTH 775 0
DWIDTH 31 0
BBX 27 37 2 0
BITMAP
0003C000
00078000
00070000
000E0000
000C0000
00180000
00000000
003F8000
01FFF000
03FFF800
0FFFFE00
1FC07F00
1F001F80
3E000F80
7C0007C0
7C0007C0
780003E0
F80003E0
F00001E0
F00001E0
F00001E0
F00001E0
F00001E0
F00001E0
F00001E0
F00001E0
F80003C0
780003C0
7C0007C0
7C000780
3E000F80
1F001F00
1FC07F00
0FFFFE00
03FFF800
01FFF000
003F8000
ENDCHAR
STARTCHAR Ocircumflex
ENCODING 212
SWIDTH 775 0
DWIDTH 31 0
BBX 27 37 2 0
BITMAP
000E0000
001F0000
003F8000
007BC000
00F1E000
01E0F000
00000000
003F8000
01FFF000
03FFF800
0FFFFE00
1FC07F00
1F001F80
3E000F80
7C0007C0
7C0007C0
780003E0
F80003E0
F00001E0
F00001E0
F00001E0
F00001E0
F00001E0
F00001E0
F00001E0
F00001E0
F80003C0
780003C0
7C0007C0
7C000780
3E000F80
1F001F00
1FC07F00
0FFFFE00
03FFF800
01FFF000
003F8000
ENDCHAR
STARTCHAR Otilde
ENCODING 213
SWIDTH 775 0
DWIDTH 31 0
BBX 27 36 2 0
BITMAP
000F1800
003FF800
007FF000
0063C000
00000000
00000000
003F8000
01FFF000
03FFF800
0FFFFE00
1FC07F00
1F001F80
3E000F80
7C0007C0
7C0007C0
780003E0
F80003E0
F00001E0
F00001E0
F00001E0
F00001E0
F00001E0
F00001E0
F00001E0
F00001E0
F80003C0
780003C0
7C0007C0
7C000780
3E000F80
1F001F00
1FC07F00
0FFFFE00
03FFF800
01FFF000
003F8000
ENDCHAR
STARTCHAR Odieresis
ENCODING 214
SWIDTH 775 0
DWIDTH 31 0
BBX 27 36 2 0
BITMAP
00F1E000
00F1E000
00F1E000
00F1E000
00000000
00000000
003F8000
01FFF000
03FFF800
0FFFFE00
1FC07F00
1F001F80
3E000F80
7C0007C0
7C0007C0
780003E0
F80003E0
F00001E0
F00001E0
F00001E0
F00001E0
F00001E0
F00001E0
F00001E0
F00001E0
F80003C0
780003C0
7C0007C0
7C000780
3E000F80
1F001F00
1FC07F00
0FFFFE00
03FFF800
01FFF000
003F8000
ENDCHAR
STARTCHAR multiply
ENCODING 215
SWIDTH 575 0
DWIDTH 23 0
BBX 20 21 2 4
BITMAP
400020
E00070
F000F0
7801E0
3C03C0
1E0780
0F0F00
079E00
03FC00
01F800
00F000
01F800
03FC00
079E00
0F0F00
1E0780
3C03C0
7801E0
F000F0
E00070
400020
ENDCHAR
STARTCHAR Oslash
ENCODING 216
SWIDTH 775 0
DWIDTH 31 0
BBX 27 30 2 0
BITMAP
003F8040
01FFF0E0
03FFF9C0
0FFFFF80
1FC07F00
1F001F00
3E000F80
7C001FC0
7C003FC0
780073E0
F800E3E0
F001C1E0
F00381E0
F00701E0
F00601E0
F00C01E0
F01C01E0
F03801E0
F07001E0
F8E003C0
79C003C0
7F8007C0
7F000780
3E000F80
1F001F00
1FC07F00
3FFFFE00
73FFF800
E1FFF000
403F8000
ENDCHAR
STARTCHAR Ugrave
ENCODING 217
SWIDTH 725 0
DWIDTH 29 0
BBX 23 37 3 0
BITMAP
03C000
01E000
00E000
007000
003800
001800
000000
000000
F0001E
F0001E
F0001E
F0001E
F0001E
F0001E
F0001E
F0001E
F0001E
F0001E
F0001E
F0001E
F0001E
F0001E
F0001E
F0001E
F0001E
F0001E
F0001E
F0001E
F0001E
F0001E
F8003E
7C007C
7F83FC
3FFFF8
1FFFF0
07FFC0
00FE00
ENDCHAR
STARTCHAR Uacute
ENCODING 218
SWIDTH 725 0
DWIDTH 29 0
BBX 23 37 3 0
BITMAP
000F00
001E00
001C00
003800
003000
006000
000000
000000
F0001E
F0001E
F0001E
F0001E
F0001E
F0001E
F0001E
F0001E
F0001E
F0001E
F0001E
F0001E
F0001E
F0001E
F0001E
F0001E
F0001E
F0001E
F0001E
F0001E
F0001E
F0001E
F8003E
7C007C
7F83FC
3FFFF8
1FFFF0
07FFC0
00FE00
ENDCHAR
STARTCHAR Ucircumflex
ENCODING 219
SWIDTH 725 0
DWIDTH 29 0
BBX 23 37 3 0
BITMAP
003800
007C00
00FE00
01EF00
03C780
0783C0
000000
000000
F0001E
F0001E
F0001E
F0001E
F0001E
F0001E
F0001E
F0001E
F0001E
F0001E
F0001E
F0001E
F0001E
F0001E
F0001E
F0001E
F0001E
F0001E
F0001E
F0001E
F0001E
F0001E
F8003E
7C007C
7F83FC
3FFFF8
1FFFF0
07FFC0
00FE00
ENDCHAR
STARTCHAR Udieresis
ENCODING 220
SWIDTH 725 0
DWIDTH 29 0
BBX 23 36 3 0
BITMAP
03C780
03C780
03C780
03C780
000000
000000
000000
F0001E
F0001E
F0001E
F0001E
F0001E
F0001E
F0001E
F0001E
F0001E
F0001E
F0001E
F0001E
F0001E
F0001E
F0001E
F0001E
F0001E
F0001E
F0001E
F0001E
F0001E
F0001E
F8003E
7C007C
7F83FC
3FFFF8
1FFFF0
07FFC0
00FE00
ENDCHAR
STARTCHAR Yacute
ENCODING 221
SWIDTH 650 0
DWIDTH 26 0
BBX 26 37 0 0
BITMAP
0003C000
00078000
00070000
000E0000
000C0000
00180000
00000000
00000000
F80007C0
78000780
3C000F00
3E001F00
1E001E00
1F003E00
0F003C00
07807800
07C0F800
03C0F000
01E1E000
01F3E000
00F3C000
007F8000
007F8000
003F0000
003F0000
001E0000
001E0000
001E0000
001E0000
001E0000
001E0000
001E0000
001E0000
001E0000
001E0000
001E0000
001E0000
ENDCHAR
STARTCHAR Thorn
ENCODING 222
SWIDTH 675 0
DWIDTH 27 0
BBX 22 29 3 0
BITMAP
F00000
F00000
F00000
F00000
F00000
FFFF00
FFFFE0
FFFFF0
FFFFF8
F001F8
F0007C
F0007C
F0003C
F0003C
F0007C
F0007C
F001F8
FFFFF8
FFFFF0
FFFFE0
FFFF00
F00000
F00000
F00000
F00000
F00000
F00000
F00000
F00000
ENDCHAR
STARTCHAR germandbls
ENCODING 223
SWIDTH 575 0
DWIDTH 23 0
BBX 19 29 2 0
BITMAP
03F800
1FFE00
3FFF00
7E1F80
780780
F807C0
F003C0
F003C0
F003C0
F00780
F00780
F01F00
F1FE00
F1FF00
F1FF80
F00FC0
F003C0
F003E0
F001E0
F001E0
F001E0
F001E0
F003E0
F003C0
F007C0
F01F80
F1FF00
F1FE00
F1F800
ENDCHAR
STARTCHAR agrave
ENCODING 224
SWIDTH 550 0
DWIDTH 22 0
BBX 20 30 1 0
BITMAP
078000
03C000
01C000
00E000
007000
003000
001800
000000
000000
01F800
07FF00
1FFF80
3E0F80
3C03C0
7803C0
7803C0
001FC0
01FFC0
0FFFC0
3FE3C0
7E03C0
7803C0
F003C0
F003C0
F007C0
F00FC0
7C3FC0
7FFBF0
3FF3F0
0FC0E0
ENDCHAR
STARTCHAR aacute
ENCODING 225
SWIDTH 550 0
DWIDTH 22 0
BBX 20 30 1 0
BITMAP
001E00
003C00
003800
007000
00E000
00C000
018000
000000
000000
01F800
07FF00
1FFF80
3E0F80
3C03C0
7803C0
7803C0
001FC0
01FFC0
0FFFC0
3FE3C0
7E03C0
7803C0
F003C0
F003C0
F007C0
F00FC0
7C3FC0
7FFBF0
3FF3F0
0FC0E0
ENDCHAR
STARTCHAR acircumflex
ENCODING 226
SWIDTH 550 0
DWIDTH 22 0
BBX 20 30 1 0
BITMAP
00E000
01F000
03F800
07BC00
0F1E00
1E0F00
3C0780
000000
000000
01F800
07FF00
1FFF80
3E0F80
3C03C0
7803C0
7803C0
001FC0
01FFC0
0FFFC0
3FE3C0
7E03C0
7803C0
F003C0
F003C0
F007C0
F00FC0
7C3FC0
7FFBF0
3FF3F0
0FC0E0
ENDCHAR
STARTCHAR atilde
ENCODING 227
SWIDTH 550 0
DWIDTH 22 0
BBX 20 28 1 0
BITMAP
01E300
07FF00
0FFE00
0C7800
000000
000000
000000
01F800
07FF00
1FFF80
3E0F80
3C03C0
7803C0
7803C0
001FC0
01FFC0
0FFFC0
3FE3C0
7E03C0
7803C0
F003C0
F003C0
F007C0
F00FC0
7C3FC0
7FFBF0
3FF3F0
0FC0E0
ENDCHAR
STARTCHAR adieresis
ENCODING 228
SWIDTH 550 0
DWIDTH 22 0
BBX 20 29 1 0
BITMAP
0F1E00
0F1E00
0F1E00
0F1E00
000000
000000
000000
000000
01F800
07FF00
1FFF80
3E0F80
3C03C0
7803C0
7803C0
001FC0
01FFC0
0FFFC0
3FE3C0
7E03C0
7803C0
F003C0
F003C0
F007C0
F00FC0
7C3FC0
7FFBF0
3FF3F0
0FC0E0
ENDCHAR
STARTCHAR aring
ENCODING 229
SWIDTH 550 0
DWIDTH 22 0
BBX 20 30 1 0
BITMAP
00F000
03FC00
039C00
070E00
070E00
039C00
03FC00
00F000
000000
01F800
07FF00
1FFF80
3E0F80
3C03C0
7803C0
7803C0
001FC0
01FFC0
0FFFC0
3FE3C0
7E03C0
7803C0
F003C0
F003C0
F007C0
F00FC0
7C3FC0
7FFBF0
3FF3F0
0FC0E0
ENDCHAR
STARTCHAR ae
ENCODING 230
SWIDTH 900 0
DWIDTH 36 0
BBX 33 21 2 0
BITMAP
01F807C000
07FF3FF800
1FFFFFFC00
3E0FFE7E00
3C03F81F00
7803F00F00
7803F00F00
001FC00780
01FFFFFF80
0FFFFFFF80
3FE3FFFF80
7E03C00000
7003C00000
E003C00000
E003E00F00
E007E00F00
E00FF01F00
783FFC7E00
7FFC7FFC00
3FF03FF800
0FC007C000
ENDCHAR
STARTCHAR ccedilla
ENCODING 231
SWIDTH 525 0
DWIDTH 21 0
BBX 18 29 1 -8
BITMAP
01F000
0FFE00
1FFF00
3F1F80
7C07C0
7803C0
7803C0
F00000
F00000
F00000
F00000
F00000
F00000
F00000
7803C0
7803C0
7C07C0
3F1F80
1FFF00
0FFE00
01F000
00E000
00F000
00F800
003C00
061C00
07BC00
07F800
01F000
ENDCHAR
STARTCHAR egrave
ENCODING 232
SWIDTH 550 0
DWIDTH 22 0
BBX 19 30 1 0
BITMAP
0F0000
078000
038000
01C000
00E000
006000
003000
000000
000000
01F000
0FFE00
1FFF00
3F1F80
7C07C0
7803C0
7803C0
F001E0
FFFFE0
FFFFE0
FFFFE0
F00000
F00000
F00000
7803C0
7803C0
7C07C0
3F1F80
1FFF00
0FFE00
01F000
ENDCHAR
STARTCHAR eacute
ENCODING 233
SWIDTH 550 0
DWIDTH 22 0
BBX 19 30 1 0
BITMAP
001E00
003C00
003800
007000
00E000
00C000
018000
000000
000000
01F000
0FFE00
1FFF00
3F1F80
7C07C0
7803C0
7803C0
F001E0
FFFFE0
FFFFE0
FFFFE0
F00000
F00000
F00000
7803C0
7803C0
7C07C0
3F1F80
1FFF00
0FFE00
01F000
ENDCHAR
STARTCHAR ecircumflex
ENCODING 234
SWIDTH 550 0
DWIDTH 22 0
BBX 19 30 1 0
BITMAP
00E000
01F000
03F800
07BC00
0F1E00
1E0F00
3C0780
000000
000000
01F000
0FFE00
1FFF00
3F1F80
7C07C0
7803C0
7803C0
F001E0
FFFFE0
FFFFE0
FFFFE0
F00000
F00000
F00000
7803C0
7803C0
7C07C0
3F1F80
1FFF00
0FFE00
01F000
ENDCHAR
STARTCHAR edieresis
ENCODING 235
SWIDTH 550 0
DWIDTH 22 0
BBX 19 29 1 0
BITMAP
0F1E00
0F1E00
0F1E00
0F1E00
000000
000000
000000
000000
01F000
0FFE00
1FFF00
3F1F80
7C07C0
7803C0
7803C0
F001E0
FFFFE0
FFFFE0
FFFFE0
F00000
F00000
F00000
7803C0
7803C0
7C07C0
3F1F80
1FFF00
0FFE00
01F000
ENDCHAR
STARTCHAR igrave
ENCODING 236
SWIDTH 225 0
DWIDTH 9 0
BBX 8 32 0 0
BITMAP
F0
78
38
1C
0E
06
03
00
00
00
3C
3C
3C
3C
3C
3C
3C
3C
3C
3C
3C
3C
3C
3C
3C
3C
3C
3C
3C
3C
3C
3C
ENDCHAR
STARTCHAR iacute
ENCODING 237
SWIDTH 225 0
DWIDTH 9 0
BBX 8 32 1 0
BITMAP
0F
1E
1C
38
70
60
C0
00
00
00
78
78
78
78
78
78
78
78
78
78
78
78
78
78
78
78
78
78
78
78
78
78
ENDCHAR
STARTCHAR icircumflex
ENCODING 238
SWIDTH 225 0
DWIDTH 9 0
BBX 9 32 0 0
BITMAP
1C00
3E00
3E00
7700
E380
C180
C180
0000
0000
0000
3C00
3C00
3C00
3C00
3C00
3C00
3C00
3C00
3C00
3C00
3C00
3C00
3C00
3C00
3C00
3C00
3C00
3C00
3C00
3C00
3C00
3C00
ENDCHAR
STARTCHAR idieresis
ENCODING 239
SWIDTH 225 0
DWIDTH 9 0
BBX 9 30 0 0
BITMAP
F780
F780
F780
F780
0000
0000
0000
0000
3C00
3C00
3C00
3C00
3C00
3C00
3C00
3C00
3C00
3C00
3C00
3C00
3C00
3C00
3C00
3C00
3C00
3C00
3C00
3C00
3C00
3C00
ENDCHAR
STARTCHAR eth
ENCODING 240
SWIDTH 550 0
DWIDTH 22 0
BBX 20 29 1 0
BITMAP
0C0300
1F8F00
07FC00
01F000
03F800
0F3C00
0C0F00
000F00
01FF00
0FFF80
1FFFC0
3FFFC0
7F0FE0
7C03E0
7801E0
F801F0
F000F0
F000F0
F000F0
F000F0
F000F0
F801F0
7801E0
7C03E0
7F0FE0
3FFFC0
1FFF80
0FFF00
01F800
ENDCHAR
STARTCHAR ntilde
ENCODING 241
SWIDTH 550 0
DWIDTH 22 0
BBX 17 29 3 0
BITMAP
03C600
0FFE00
1FFC00
18F000
000000
000000
000000
000000
01F000
F7FC00
FFFE00
FE1F00
F80F00
F80780
F00780
F00780
F00780
F00780
F00780
F00780
F00780
F00780
F00780
F00780
F00780
F00780
F00780
F00780
F00780
ENDCHAR
STARTCHAR ograve
ENCODING 242
SWIDTH 575 0
DWIDTH 23 0
BBX 20 30 1 0
BITMAP
078000
03C000
01C000
00E000
007000
003000
001800
000000
000000
01F800
0FFF00
1FFF80
3FFFC0
7F0FE0
7C03E0
7801E0
F801F0
F000F0
F000F0
F000F0
F000F0
F000F0
F801F0
7801E0
7C03E0
7F0FE0
3FFFC0
1FFF80
0FFF00
01F800
ENDCHAR
STARTCHAR oacute
ENCODING 243
SWIDTH 575 0
DWIDTH 23 0
BBX 20 30 1 0
BITMAP
001E00
003C00
003800
007000
00E000
00C000
018000
000000
000000
01F800
0FFF00
1FFF80
3FFFC0
7F0FE0
7C03E0
7801E0
F801F0
F000F0
F000F0
F000F0
F000F0
F000F0
F801F0
7801E0
7C03E0
7F0FE0
3FFFC0
1FFF80
0FFF00
01F800
ENDCHAR
STARTCHAR ocircumflex
ENCODING 244
SWIDTH 575 0
DWIDTH 23 0
BBX 20 30 1 0
BITMAP
00E000
01F000
03F800
07BC00
0F1E00
1E0F00
3C0780
000000
000000
01F800
0FFF00
1FFF80
3FFFC0
7F0FE0
7C03E0
7801E0
F801F0
F000F0
F000F0
F000F0
F000F0
F000F0
F801F0
7801E0
7C03E0
7F0FE0
3FFFC0
1FFF80
0FFF00
01F800
ENDCHAR
STARTCHAR otilde
ENCODING 245
SWIDTH 575 0
DWIDTH 23 0
BBX 20 28 1 0
BITMAP
01E300
07FF00
0FFE00
0C7800
000000
000000
000000
01F800
0FFF00
1FFF80
3FFFC0
7F0FE0
7C03E0
7801E0
F801F0
F000F0
F000F0
F000F0
F000F0
F000F0
F801F0
7801E0
7C03E0
7F0FE0
3FFFC0
1FFF80
0FFF00
01F800
ENDCHAR
STARTCHAR odieresis
ENCODING 246
SWIDTH 575 0
DWIDTH 23 0
BBX 20 29 1 0
BITMAP
0F1E00
0F1E00
0F1E00
0F1E00
000000
000000
000000
000000
01F800
0FFF00
1FFF80
3FFFC0
7F0FE0
7C03E0
7801E0
F801F0
F000F0
F000F0
F000F0
F000F0
F000F0
F801F0
7801E0
7C03E0
7F0FE0
3FFFC0
1FFF80
0FFF00
01F800
ENDCHAR
STARTCHAR divide
ENCODING 247
SWIDTH 575 0
DWIDTH 23 0
BBX 19 19 2 5
BITMAP
00E000
01F000
01F000
01F000
00E000
000000
000000
000000
FFFFE0
FFFFE0
FFFFE0
000000
000000
000000
00E000
01F000
01F000
01F000
00E000
ENDCHAR
STARTCHAR oslash
ENCODING 248
SWIDTH 575 0
DWIDTH 23 0
BBX 21 23 1 -1
BITMAP
000018
01F838
0FFF70
1FFFE0
3FFFC0
7F0FE0
7C07E0
7807E0
F80FF0
F01CF0
F038F0
F070F0
F0E0F0
F1C0F0
F380F0
FF01F0
7E01E0
7C03E0
7F0FE0
3FFFC0
7FFF80
EFFF00
C1F800
ENDCHAR
STARTCHAR ugrave
ENCODING 249
SWIDTH 550 0
DWIDTH 22 0
BBX 17 31 2 0
BITMAP
1E0000
0F0000
070000
038000
01C000
00C000
006000
000000
000000
000000
F00780
F00780
F00780
F00780
F00780
F00780
F00780
F00780
F00780
F00780
F00780
F00780
F00780
F00780
F00780
F00F80
780F80
7C3F80
3FFF80
1FF780
07C780
ENDCHAR
STARTCHAR uacute
ENCODING 250
SWIDTH 550 0
DWIDTH 22 0
BBX 17 31 2 0
BITMAP
001E00
003C00
003800
007000
00E000
00C000
018000
000000
000000
000000
F00780
F00780
F00780
F00780
F00780
F00780
F00780
F00780
F00780
F00780
F00780
F00780
F00780
F00780
F00780
F00F80
780F80
7C3F80
3FFF80
1FF780
07C780
ENDCHAR
STARTCHAR ucircumflex
ENCODING 251
SWIDTH 550 0
DWIDTH 22 0
BBX 17 31 2 0
BITMAP
01C000
03E000
07F000
0F7800
1E3C00
3C1E00
780F00
000000
000000
000000
F00780
F00780
F00780
F00780
F00780
F00780
F00780
F00780
F00780
F00780
F00780
F00780
F00780
F00780
F00780
F00F80
780F80
7C3F80
3FFF80
1FF780
07C780
ENDCHAR
STARTCHAR udieresis
ENCODING 252
SWIDTH 550 0
DWIDTH 22 0
BBX 17 29 2 0
BITMAP
1E3C00
1E3C00
1E3C00
1E3C00
000000
000000
000000
000000
F00780
F00780
F00780
F00780
F00780
F00780
F00780
F00780
F00780
F00780
F00780
F00780
F00780
F00780
F00780
F00F80
780F80
7C3F80
3FFF80
1FF780
07C780
ENDCHAR
STARTCHAR yacute
ENCODING 253
SWIDTH 500 0
DWIDTH 20 0
BBX 17 38 1 -8
BITMAP
001E00
003C00
003800
007000
00E000
00C000
018000
000000
000000
000000
E00380
F00780
F00780
700700
780F00
780F00
380E00
3C1E00
3C1E00
1C1C00
1E3C00
1E3C00
0F7800
0F7800
07F000
07F000
07F000
03E000
03E000
03E000
01C000
03C000
03C000
038000
078000
7F0000
7F0000
7C0000
ENDCHAR
STARTCHAR thorn
ENCODING 254
SWIDTH 550 0
DWIDTH 22 0
BBX 18 37 2 -8
BITMAP
F00000
F00000
F00000
F00000
F00000
F00000
F00000
F00000
F1E000
F7FC00
FFFE00
FFFF00
FE3F80
F80F80
F00780
F007C0
F003C0
F003C0
F003C0
F003C0
F003C0
F007C0
F00780
F80F80
FE3F80
FFFF00
FFFE00
F7FC00
F1E000
F00000
F00000
F00000
F00000
F00000
F00000
F00000
F00000
ENDCHAR
STARTCHAR ydieresis
ENCODING 255
SWIDTH 500 0
DWIDTH 20 0
BBX 17 36 1 -8
BITMAP
1E3C00
1E3C00
1E3C00
1E3C00
000000
000000
000000
000000
E00380
F00780
F00780
700700
780F00
780F00
380E00
3C1E00
3C1E00
1C1C00
1E3C00
1E3C00
0F7800
0F7800
07F000
07F000
07F000
03E000
03E000
03E000
01C000
03C000
03C000
038000
078000
7F0000
7F0000
7C0000
ENDCHAR
ENDFONT
